<svg version="1.2" xmlns="http://www.w3.org/2000/svg" xmlnsXlink="http://www.w3.org/1999/xlink" overflow="visible" preserveAspectRatio="none" viewBox="0 0 168 168" width="168" height="168"><g transform="translate(0, 0)"><g transform="translate(0.0000050000000064720496, -0.000004999999997590265)&#10;        rotate(0)"><path style="stroke-width: 0; stroke-linecap: butt; stroke-linejoin: miter; fill: rgb(255, 255, 255);" d="M160.33855,51.18749c-8.28761,-20.23432 -24.32815,-36.27916 -44.55705,-44.56899c-20.67447,-8.82466 -43.93325,-8.82466 -64.60773,0c-20.2289,8.28983 -36.26944,24.33467 -44.55705,44.56899c-8.8223,20.68001 -8.8223,43.94502 0,64.62504c8.28761,20.23432 24.32815,36.27916 44.55705,44.56899c20.67447,8.82466 44.02237,8.82466 64.69684,0c9.98078,-4.10035 19.07042,-10.16173 26.73423,-17.8276c7.5747,-7.66587 13.63446,-16.75794 17.82282,-26.74139c8.8223,-20.59087 8.73318,-43.94502 -0.08911,-64.62504zM67.92857,128l-38.92857,-39.34741l10.97786,-11.09597l27.95071,28.17274l59.09357,-59.72936l10.97786,11.17466z" vector-effect="non-scaling-stroke"/></g></g><defs><path id="path-168993248017315" d="M160.33855,51.18749c-8.28761,-20.23432 -24.32815,-36.27916 -44.55705,-44.56899c-20.67447,-8.82466 -43.93325,-8.82466 -64.60773,0c-20.2289,8.28983 -36.26944,24.33467 -44.55705,44.56899c-8.8223,20.68001 -8.8223,43.94502 0,64.62504c8.28761,20.23432 24.32815,36.27916 44.55705,44.56899c20.67447,8.82466 44.02237,8.82466 64.69684,0c9.98078,-4.10035 19.07042,-10.16173 26.73423,-17.8276c7.5747,-7.66587 13.63446,-16.75794 17.82282,-26.74139c8.8223,-20.59087 8.73318,-43.94502 -0.08911,-64.62504zM67.92857,128l-38.92857,-39.34741l10.97786,-11.09597l27.95071,28.17274l59.09357,-59.72936l10.97786,11.17466z" vector-effect="non-scaling-stroke"/></defs></svg>